# xmcd
#
# Track frame offsets:
#	150
#	17877
#	32084
#	47227
#	61798
#	79075
#	99422
#	115645
#	132906
#	155222
#	175637
#	193582
#	207599
#
# Disc length: 3008 seconds
#
# Revision: 1
# Processed by: cddbd v1.5PL3 Copyright (c) Steve Scherf et al.
# Submitted via: EasyCDDAExtractor 6.5.0.3
#
DISCID=ac0bbe0d
DTITLE=Patti LaBelle - Timeless Journey
DYEAR=2004
DGENRE=Soul
TTITLE0=More Than Material
TTITLE1=It's Time
TTITLE2=New Day
TTITLE3=Something More
TTITLE4=Sometimes Love
TTITLE5=Hear My Cry
TTITLE6=Good Lovin'
TTITLE7=MM MM MM
TTITLE8=Not Right But Real
TTITLE9=2 Steps Away
TTITLE10=Finally Got The Nerve
TTITLE11=Unpredictable
TTITLE12=When You Smile
EXTD=
EXTT0=
EXTT1=
EXTT2=
EXTT3=
EXTT4=
EXTT5=
EXTT6=
EXTT7=
EXTT8=
EXTT9=
EXTT10=
EXTT11=
EXTT12=
PLAYORDER=
